<svg xmlns="http://www.w3.org/2000/svg" xmlns:xlink="http://www.w3.org/1999/xlink" width="12" height="21" viewBox="0 0 12 21"><defs><path id="yd2ia" d="M293.25 5023.85a1 1 0 0 1 0-1.41l9.19-9.2a1 1 0 0 1 1.41 1.41l-9.19 9.2a1 1 0 0 1-1.41 0z"/><path id="yd2ib" d="M293.25 5022.75a1 1 0 0 1 1.41 0l9.2 9.19a1 1 0 0 1-1.41 1.41l-9.2-9.19a1 1 0 0 1 0-1.41z"/></defs><g><g opacity=".5" transform="translate(-293 -5013)"><use fill="#849ec2" xlink:href="#yd2ia"/></g><g opacity=".5" transform="translate(-293 -5013)"><use fill="#849ec2" xlink:href="#yd2ib"/></g></g></svg>