<svg xmlns="http://www.w3.org/2000/svg" xmlns:xlink="http://www.w3.org/1999/xlink" width="57" height="48" viewBox="0 0 57 48"><defs><path id="lddka" d="M782 4216a8 8 0 0 1-5 7.42V4237h-9v-13.58a8 8 0 0 1-5-7.42v-11h19z"/><path id="lddkb" d="M801 4212a7 7 0 0 1-3 5.75V4228h-8v-10.25a7 7 0 0 1-3-5.75v-7h14z"/><path id="lddkc" d="M758 4212a7 7 0 0 1-3 5.75V4228h-8v-10.25a7 7 0 0 1-3-5.75v-7h14z"/><path id="lddkd" d="M782 4216a8 8 0 0 1-5 7.42V4237h-9v-13.58a8 8 0 0 1-5-7.42v-11h19z"/><path id="lddkf" d="M801 4212a7 7 0 0 1-3 5.75V4228h-8v-10.25a7 7 0 0 1-3-5.75v-7h14z"/><path id="lddkh" d="M758 4212a7 7 0 0 1-3 5.75V4228h-8v-10.25a7 7 0 0 1-3-5.75v-7h14z"/><path id="lddkj" d="M747 4197.5a3.5 3.5 0 1 1 7 0 3.5 3.5 0 0 1-7 0z"/><path id="lddkk" d="M767 4195.5a5.5 5.5 0 1 1 11 0 5.5 5.5 0 0 1-11 0z"/><path id="lddkl" d="M791 4197.5a3.5 3.5 0 1 1 7 0 3.5 3.5 0 0 1-7 0z"/><clipPath id="lddke"><use fill="#fff" xlink:href="#lddka"/></clipPath><clipPath id="lddkg"><use fill="#fff" xlink:href="#lddkb"/></clipPath><clipPath id="lddki"><use fill="#fff" xlink:href="#lddkc"/></clipPath></defs><g><g transform="translate(-744 -4189)"><g><use fill="#fff" fill-opacity="0" stroke="#ff3f49" stroke-miterlimit="50" stroke-width="4" clip-path="url(&quot;#lddke&quot;)" xlink:href="#lddkd"/></g><g><use fill="#fff" fill-opacity="0" stroke="#ff3f49" stroke-miterlimit="50" stroke-width="4" clip-path="url(&quot;#lddkg&quot;)" xlink:href="#lddkf"/></g><g><use fill="#fff" fill-opacity="0" stroke="#ff3f49" stroke-miterlimit="50" stroke-width="4" clip-path="url(&quot;#lddki&quot;)" xlink:href="#lddkh"/></g><g><use fill="#fff" fill-opacity="0" stroke="#ff3f49" stroke-miterlimit="50" stroke-width="2" xlink:href="#lddkj"/></g><g><use fill="#fff" fill-opacity="0" stroke="#ff3f49" stroke-miterlimit="50" stroke-width="2" xlink:href="#lddkk"/></g><g><use fill="#fff" fill-opacity="0" stroke="#ff3f49" stroke-miterlimit="50" stroke-width="2" xlink:href="#lddkl"/></g></g></g></svg>