<svg xmlns="http://www.w3.org/2000/svg" xmlns:xlink="http://www.w3.org/1999/xlink" width="64" height="47" viewBox="0 0 64 47"><defs><path id="mwqca" d="M346 4507v-45h62v45z"/><path id="mwqcb" d="M356 4501v-33h46v33z"/><path id="mwqcc" d="M351 4474h6"/><path id="mwqcd" d="M351 4484h6"/><path id="mwqce" d="M351 4494h6"/><path id="mwqcf" d="M383 4484a3 3 0 1 1 6 0 3 3 0 0 1-6 0z"/><path id="mwqcg" d="M377 4484a9 9 0 1 1 18 0 9 9 0 0 1-18 0z"/><path id="mwqch" d="M377 4484h6"/><path id="mwqci" d="M386 4481v-6"/><path id="mwqcj" d="M389 4484h6"/><path id="mwqck" d="M386 4487v6"/><path id="mwqcl" d="M388 4486l4 4"/><path id="mwqcm" d="M388 4482l4-4"/><path id="mwqcn" d="M384 4482l-4-4"/><path id="mwqco" d="M384 4486l-3.97 4"/></defs><g><g transform="translate(-345 -4461)"><g><use fill="#fff" fill-opacity="0" stroke="#ff3f49" stroke-miterlimit="50" stroke-width="2" xlink:href="#mwqca"/></g><g><use fill="#fff" fill-opacity="0" stroke="#ff3f49" stroke-miterlimit="50" stroke-width="2" xlink:href="#mwqcb"/></g><g><use fill="#fff" fill-opacity="0" stroke="#ff3f49" stroke-miterlimit="50" stroke-width="2" xlink:href="#mwqcc"/></g><g><use fill="#fff" fill-opacity="0" stroke="#ff3f49" stroke-miterlimit="50" stroke-width="2" xlink:href="#mwqcd"/></g><g><use fill="#fff" fill-opacity="0" stroke="#ff3f49" stroke-miterlimit="50" stroke-width="2" xlink:href="#mwqce"/></g><g><use fill="#fff" fill-opacity="0" stroke="#ff3f49" stroke-miterlimit="50" stroke-width="2" xlink:href="#mwqcf"/></g><g><use fill="#fff" fill-opacity="0" stroke="#ff3f49" stroke-miterlimit="50" stroke-width="2" xlink:href="#mwqcg"/></g><g><use fill="#fff" fill-opacity="0" stroke="#ff3f49" stroke-miterlimit="50" stroke-width="2" xlink:href="#mwqch"/></g><g><use fill="#fff" fill-opacity="0" stroke="#ff3f49" stroke-miterlimit="50" stroke-width="2" xlink:href="#mwqci"/></g><g><use fill="#fff" fill-opacity="0" stroke="#ff3f49" stroke-miterlimit="50" stroke-width="2" xlink:href="#mwqcj"/></g><g><use fill="#fff" fill-opacity="0" stroke="#ff3f49" stroke-miterlimit="50" stroke-width="2" xlink:href="#mwqck"/></g><g><use fill="#fff" fill-opacity="0" stroke="#ff3f49" stroke-miterlimit="50" stroke-width="2" xlink:href="#mwqcl"/></g><g><use fill="#fff" fill-opacity="0" stroke="#ff3f49" stroke-miterlimit="50" stroke-width="2" xlink:href="#mwqcm"/></g><g><use fill="#fff" fill-opacity="0" stroke="#ff3f49" stroke-miterlimit="50" stroke-width="2" xlink:href="#mwqcn"/></g><g><use fill="#fff" fill-opacity="0" stroke="#ff3f49" stroke-miterlimit="50" stroke-width="2" xlink:href="#mwqco"/></g></g></g></svg>